<svg width="32" height="32" viewBox="0 0 32 32" fill="none" xmlns="http://www.w3.org/2000/svg">
<rect x="0.5" y="0.5" width="31" height="31" rx="4" fill="#1a1a1a"/>
<path d="M25.4737 14.9474C25.7632 14.9474 26 14.7105 26 14.4211C26 14.1316 25.7632 13.8947 25.4737 13.8947H23.8947V11.7895H25.4737C25.7632 11.7895 26 11.5526 26 11.2632C26 10.9737 25.7632 10.7368 25.4737 10.7368H23.8947V10.2105C23.8947 9.04737 22.9526 8.10526 21.7895 8.10526H21.2632V6.52632C21.2632 6.23684 21.0263 6 20.7368 6C20.4474 6 20.2105 6.23684 20.2105 6.52632V8.10526H18.1053V6.52632C18.1053 6.23684 17.8684 6 17.579 6C17.2895 6 17.0526 6.23684 17.0526 6.52632V8.10526H14.9474V6.52632C14.9474 6.23684 14.7105 6 14.4211 6C14.1316 6 13.8947 6.23684 13.8947 6.52632V8.10526H11.7895V6.52632C11.7895 6.23684 11.5526 6 11.2632 6C10.9737 6 10.7368 6.23684 10.7368 6.52632V8.10526H10.2105C9.04737 8.10526 8.10526 9.04737 8.10526 10.2105V10.7368H6.52632C6.23684 10.7368 6 10.9737 6 11.2632C6 11.5526 6.23684 11.7895 6.52632 11.7895H8.10526V13.8947H6.52632C6.23684 13.8947 6 14.1316 6 14.4211C6 14.7105 6.23684 14.9474 6.52632 14.9474H8.10526V17.0526H6.52632C6.23684 17.0526 6 17.2895 6 17.579C6 17.8684 6.23684 18.1053 6.52632 18.1053H8.10526V20.2105H6.52632C6.23684 20.2105 6 20.4474 6 20.7368C6 21.0263 6.23684 21.2632 6.52632 21.2632H8.10526V21.7895C8.10526 22.9526 9.04737 23.8947 10.2105 23.8947H10.7368V25.4737C10.7368 25.7632 10.9737 26 11.2632 26C11.5526 26 11.7895 25.7632 11.7895 25.4737V23.8947H13.8947V25.4737C13.8947 25.7632 14.1316 26 14.4211 26C14.7105 26 14.9474 25.7632 14.9474 25.4737V23.8947H17.0526V25.4737C17.0526 25.7632 17.2895 26 17.579 26C17.8684 26 18.1053 25.7632 18.1053 25.4737V23.8947H20.2105V25.4737C20.2105 25.7632 20.4474 26 20.7368 26C21.0263 26 21.2632 25.7632 21.2632 25.4737V23.8947H21.7895C22.9526 23.8947 23.8947 22.9526 23.8947 21.7895V21.2632H25.4737C25.7632 21.2632 26 21.0263 26 20.7368C26 20.4474 25.7632 20.2105 25.4737 20.2105H23.8947V18.1053H25.4737C25.7632 18.1053 26 17.8684 26 17.579C26 17.2895 25.7632 17.0526 25.4737 17.0526H23.8947V14.9474H25.4737ZM22.8421 21.7895C22.8421 22.3684 22.3684 22.8421 21.7895 22.8421H10.2105C9.63158 22.8421 9.1579 22.3684 9.1579 21.7895V10.2105C9.1579 9.63158 9.63158 9.1579 10.2105 9.1579H21.7895C22.3684 9.1579 22.8421 9.63158 22.8421 10.2105V21.7895Z" fill="white" stroke="#020202" stroke-width="0.5"/>
</svg>
