<svg width="32" height="32" viewBox="0 0 32 32" fill="none" xmlns="http://www.w3.org/2000/svg">
<rect x="0.5" y="0.5" width="31" height="31" rx="4" fill="#1a1a1a"/>
<g clip-path="url(#clip0_ownership)">
<path d="M15.8828 25.9799C15.9207 25.9933 15.9603 26 16 26C16.0396 26 16.0792 25.9933 16.1171 25.9799C19.3604 24.8336 21.6811 22.8139 23.0146 19.9771C24.3357 17.1668 24.7135 13.4851 24.1376 9.0341C24.118 8.8825 24.0027 8.76094 23.8523 8.7334C22.3166 8.45219 20.9944 7.52035 20.225 6.17684C20.1624 6.06746 20.046 6 19.9199 6H12.08C11.9539 6 11.8376 6.06746 11.7749 6.17684C11.0055 7.52039 9.68335 8.45223 8.14764 8.7334C7.99725 8.76094 7.8819 8.8825 7.86229 9.0341C7.28639 13.485 7.66425 17.1668 8.98534 19.9771C10.3189 22.8139 12.6396 24.8336 15.8828 25.9799ZM8.52835 9.37293C10.0923 9.01711 11.4399 8.05863 12.2797 6.70312H19.7203C20.5601 8.05863 21.9076 9.01707 23.4717 9.37293C24.5116 17.8713 22.0664 23.0761 16 25.275C9.93362 23.0761 7.48835 17.8713 8.52835 9.37293Z" fill="white"/>
</g>
<defs>
<clipPath id="clip0_ownership">
<rect width="20" height="20" fill="white" transform="translate(6 6)"/>
</clipPath>
</defs>
</svg>
