<svg width="32" height="32" viewBox="0 0 32 32" fill="none" xmlns="http://www.w3.org/2000/svg">
<rect x="0.5" y="0.5" width="31" height="31" rx="4" fill="#1a1a1a"/>
<g clip-path="url(#clip0_enterprise)">
<path d="M17.3931 26.4054H14.6104C14.5433 26.4054 14.4782 26.3827 14.4256 26.341C14.373 26.2993 14.3361 26.241 14.3209 26.1756L13.8508 24.1558C13.1154 23.9625 12.4096 23.6702 11.7528 23.2871L9.9946 24.3838C9.93759 24.4194 9.8702 24.4347 9.80341 24.427C9.73662 24.4194 9.67438 24.3894 9.62685 24.3419L7.65844 22.3726C7.611 22.3251 7.58101 22.263 7.57335 22.1964C7.56568 22.1297 7.5808 22.0624 7.61623 22.0054L8.71266 20.2478C8.32965 19.5908 8.03752 18.885 7.84425 18.1495L5.82501 17.6827C5.75953 17.6676 5.70111 17.6307 5.65926 17.5781C5.61742 17.5256 5.59463 17.4603 5.5946 17.3931V14.6069C5.59463 14.5397 5.61742 14.4745 5.65926 14.4219C5.70111 14.3693 5.75953 14.3324 5.82501 14.3173L7.84425 13.8506C8.03767 13.1153 8.3299 12.4096 8.71296 11.7528L7.61623 9.99461C7.58061 9.9376 7.56536 9.8702 7.57297 9.80341C7.58059 9.73662 7.61061 9.67438 7.65814 9.62685L9.62715 7.65785C9.67469 7.61043 9.73689 7.58051 9.80362 7.57295C9.87034 7.56539 9.93766 7.58065 9.9946 7.61623L11.7522 8.71266C12.4091 8.32961 13.1149 8.03739 13.8503 7.84396L14.3203 5.82412C14.3356 5.75871 14.3726 5.70041 14.4253 5.65873C14.478 5.61705 14.5433 5.59445 14.6104 5.59461H17.3931C17.4603 5.59463 17.5256 5.61742 17.5781 5.65926C17.6307 5.70111 17.6676 5.75953 17.6827 5.82501L18.1495 7.84425C18.8848 8.03767 19.5904 8.3299 20.2472 8.71296L22.0054 7.61623C22.0624 7.58061 22.1298 7.56536 22.1966 7.57297C22.2634 7.58059 22.3256 7.61061 22.3732 7.65815L24.3422 9.62715C24.3896 9.67469 24.4195 9.73689 24.4271 9.80362C24.4346 9.87034 24.4194 9.93766 24.3838 9.99461L23.2874 11.7522C23.6704 12.409 23.9627 13.1147 24.1561 13.85L26.1753 14.3167C26.2408 14.3318 26.2992 14.3687 26.3411 14.4213C26.3829 14.4739 26.4057 14.5391 26.4057 14.6063V17.3926C26.4057 17.4598 26.3829 17.525 26.3411 17.5776C26.2992 17.6301 26.2408 17.667 26.1753 17.6821L24.1561 18.1489C23.9627 18.8842 23.6704 19.5898 23.2874 20.2466L24.3838 22.0054C24.4194 22.0624 24.4347 22.1298 24.427 22.1966C24.4194 22.2634 24.3894 22.3256 24.3419 22.3732L22.3729 24.3422C22.3253 24.3896 22.2631 24.4195 22.1964 24.4271C22.1297 24.4346 22.0624 24.4194 22.0054 24.3838L20.2478 23.2874C19.591 23.6704 18.8853 23.9626 18.1501 24.1561L17.6833 26.1753C17.6681 26.2408 17.6311 26.2993 17.5784 26.3411C17.5257 26.3829 17.4604 26.4055 17.3931 26.4054ZM14.8465 25.8108H17.1565L17.6111 23.8448C17.6235 23.791 17.6507 23.7417 17.6895 23.7025C17.7284 23.6633 17.7774 23.6357 17.8311 23.6227C18.6303 23.4311 19.3943 23.1146 20.095 22.685C20.142 22.656 20.1961 22.6406 20.2514 22.6406C20.3066 22.6406 20.3608 22.656 20.4077 22.685L22.1193 23.7529L23.7544 22.1178L22.6862 20.4077C22.6572 20.3608 22.6418 20.3066 22.6418 20.2514C22.6418 20.1961 22.6572 20.142 22.6862 20.095C23.1159 19.3944 23.4324 18.6303 23.6239 17.8311C23.6368 17.7774 23.6645 17.7284 23.7037 17.6895C23.7429 17.6507 23.7922 17.6235 23.846 17.6111L25.8108 17.1565V14.8435L23.8448 14.389C23.791 14.3765 23.7417 14.3494 23.7025 14.3105C23.6633 14.2716 23.6357 14.2226 23.6227 14.169C23.4312 13.3697 23.1148 12.6056 22.685 11.905C22.656 11.8581 22.6406 11.8039 22.6406 11.7487C22.6406 11.6934 22.656 11.6393 22.685 11.5923L23.7529 9.88074L22.1178 8.24561L20.4077 9.31379C20.3607 9.34266 20.3066 9.35793 20.2514 9.35793C20.1962 9.35793 20.142 9.34266 20.095 9.31379C19.3944 8.88407 18.6303 8.56762 17.8311 8.37612C17.7774 8.36318 17.7284 8.33555 17.6895 8.29633C17.6507 8.2571 17.6235 8.20783 17.6111 8.15404L17.1565 6.1892H14.8465L14.389 8.15552C14.3765 8.20926 14.3493 8.25847 14.3104 8.29764C14.2716 8.33681 14.2226 8.36439 14.169 8.37731C13.3697 8.56881 12.6056 8.88526 11.905 9.31498C11.8581 9.34404 11.8039 9.35943 11.7487 9.35943C11.6934 9.35943 11.6393 9.34404 11.5923 9.31498L9.88074 8.24709L8.2456 9.88223L9.3135 11.5938C9.34255 11.6408 9.35795 11.6949 9.35795 11.7501C9.35795 11.8054 9.34255 11.8595 9.3135 11.9065C8.88377 12.6071 8.56732 13.3712 8.37582 14.1704C8.36288 14.2241 8.33525 14.2731 8.29603 14.312C8.2568 14.3508 8.20753 14.378 8.15374 14.3904L6.1892 14.8435V17.1565L8.15523 17.6111C8.20902 17.6235 8.25829 17.6507 8.29752 17.6895C8.33674 17.7284 8.36437 17.7774 8.37731 17.8311C8.56881 18.6303 8.88526 19.3944 9.31498 20.095C9.34404 20.142 9.35943 20.1961 9.35943 20.2514C9.35943 20.3066 9.34404 20.3608 9.31498 20.4077L8.24709 22.1193L9.88223 23.7544L11.5938 22.6865C11.6408 22.6575 11.6949 22.6421 11.7501 22.6421C11.8054 22.6421 11.8595 22.6575 11.9065 22.6865C12.6072 23.1161 13.3712 23.4325 14.1704 23.6242C14.2241 23.6371 14.2731 23.6647 14.3119 23.7039C14.3508 23.743 14.378 23.7922 14.3904 23.846L14.8465 25.8108Z" fill="white"/>
</g>
<defs>
<clipPath id="clip0_enterprise">
<rect width="22" height="22" fill="white" transform="translate(5 5)"/>
</clipPath>
</defs>
</svg>
