<svg width="144" height="219" viewBox="0 0 144 219" fill="none" xmlns="http://www.w3.org/2000/svg">
<g opacity="0.4" clip-path="url(#clip0_186_470)">
<path d="M129.787 161.026L111.203 144.701C104.097 138.464 99.4409 130.304 97.8871 120.752L97.3158 117.064C101.703 117.795 105.388 117.179 109.021 114.716C118.784 108.105 124.411 96.1358 123.143 84.3684C122.572 79.1091 119.875 75.0466 114.894 73.3491C122.572 46.4596 110.598 20.0247 84.1537 11.566C74.7849 3.93016 61.9656 -2.07725 50.3289 0.67902C45.3302 1.86439 41.3371 4.90837 36.8012 7.11224C23.542 13.5397 20.0173 22.5105 20.1601 37.483C9.8601 44.1982 4.38163 56.8748 6.84951 69.1658C7.87208 74.241 11.1455 77.4346 16.1498 78.8041C16.4354 79.955 16.4697 82.1013 16.1841 83.2809C14.8473 88.7934 14.8016 93.7133 16.0584 99.1798L21.5654 123.106L13.7162 126.558C7.8778 129.125 3.86177 134.447 2.10226 140.576L1.55955 142.078C0.439863 149.115 -0.64555 155.381 0.462714 162.056C1.10825 165.958 3.61041 169.307 5.96404 172.5C15.9613 186.063 29.1747 196.087 44.5019 203.256C65.4961 213.073 88.2269 218.632 111.369 218.994C119.281 219.121 126.805 217.389 133.694 213.954C137.545 212.032 140.704 208.539 142.709 204.793C143.971 202.428 143.863 199.217 143.966 196.553C144.48 183.727 139.407 169.479 129.787 161.026ZM141.298 187.03L136.693 180.602L138.836 175.418C140.053 178.951 142.263 181.949 141.304 187.03H141.298ZM117.87 191.259L129.41 186.891L132.66 199.436C127.953 201.484 123.4 202.871 118.59 204.016C118.658 199.102 118.573 195.396 117.87 191.253V191.259ZM51.4086 140.668C55.5446 139.022 59.0579 137.578 62.6626 135.362C63.9022 135.178 65.119 134.937 66.313 134.655L70.2091 158.512C70.249 158.753 70.0834 158.983 69.8434 159.018L63.3938 159.99C59.4235 160.566 55.2475 159.916 51.0258 159.254L51.8484 148.033C51.7913 145.783 51.4657 142.877 51.4143 140.668H51.4086ZM21.5483 59.0729L31.8483 65.5694L31.357 68.5328C30.7572 72.1407 30.1459 74.5057 29.5289 78.4473L19.8173 69.2176L21.554 59.0729H21.5483ZM18.9719 68.5271L15.9327 66.4786L16.9153 56.9956L20.9827 58.6816L18.9719 68.5213V68.5271ZM86.0961 48.7095C83.1369 43.6401 80.4519 39.6984 76.5044 34.8879L80.3091 33.1961C83.5082 38.0642 85.8333 42.0174 88.4783 47.1041L86.0961 48.7095ZM88.7125 48.0535C91.3917 53.9229 92.877 59.7691 93.8653 66.726L92.34 67.5949C90.7691 61.1962 89.1809 55.6894 86.3931 49.5554L88.7125 48.0535ZM75.8475 34.3585C70.6204 29.3926 66.1188 26.2048 59.3949 22.9824L64.8448 19.1098C70.5632 22.9536 75.1677 26.9758 79.7207 32.661L75.8475 34.3585ZM25.4729 31.6252H25.5357L28.3007 30.647L25.4329 34.6577L25.4786 31.6252H25.4729ZM37.0983 23.8168C37.858 23.2471 42.2568 20.9396 42.2568 20.9396L39.5033 23.2413C38.7035 23.9088 37.9666 24.6511 37.3039 25.4625L32.1225 31.7518L28.1465 32.4653C30.86 29.3696 34.8075 25.5373 37.104 23.811L37.0983 23.8168ZM43.2794 20.9396C48.2323 21.0605 52.9167 21.705 57.6754 22.9766C53.2195 26.8262 49.8147 29.9795 46.0272 34.3297C41.8912 32.8164 38.018 31.9245 33.0365 31.9072C35.8586 27.5628 39.1662 24.0297 43.2737 20.9396H43.2794ZM32.3396 32.6667C36.5955 32.4251 41.5599 33.5702 45.3645 35.0145C42.3368 39.5603 40.2802 42.9898 37.7552 48.0823L25.9071 44.5435L29.1462 37.9319C30.0031 36.1883 31.1228 34.5599 32.3396 32.661V32.6667ZM38.0351 49.354C43.4222 51.7708 48.7522 54.1473 54.0193 56.9841C51.9798 61.225 50.5117 64.7465 48.8036 69.4017C43.5765 67.8999 38.4122 66.5534 32.7566 65.2472L38.0351 49.3482V49.354ZM38.3379 48.5139C40.6001 43.7897 43.1766 39.3186 46.3243 35.2159C52.2026 38.421 57.4412 41.4074 62.6683 44.8715C59.3778 48.7153 57.1213 51.765 54.4991 56.167L38.3379 48.5139ZM46.6213 34.7325C50.306 30.4917 54.1164 26.878 58.6066 23.2528C64.5878 26.4867 69.7863 29.8069 75.2648 34.5829C70.7975 37.9894 67.0214 41.0161 63.0625 44.6298C58.2638 40.458 53.0424 37.5003 46.627 34.7325H46.6213ZM58.3438 22.6314C53.9678 20.8246 45.4159 20.0132 45.4159 20.0132C45.4159 20.0132 56.7214 14.1266 64.205 19.035L58.3495 22.6314H58.3438ZM37.0983 21.2964C38.1608 17.8611 39.9318 15.3926 42.1711 12.9355C45.6159 12.7284 48.5408 12.7111 52.1798 13.9022C46.3585 16.2097 42.274 17.9187 37.104 21.3022L37.0983 21.2964ZM35.3787 22.7292C32.9737 25.7329 29.6432 27.8677 26.1013 29.2948C27.3352 21.5553 32.431 15.5077 39.8518 13.7354C37.9209 16.8887 36.4984 19.2594 35.3787 22.7292ZM31.1456 32.989C28.872 36.9421 27.0782 40.2278 25.1587 44.4802L21.2112 44.7276C24.0562 39.0482 26.187 32.2294 31.1456 32.9947V32.989ZM25.5643 45.2282L37.4239 48.9339C35.1159 54.3256 33.8649 59.3894 32.1396 64.8731L21.891 58.4342C22.7937 54.3026 23.9933 50.1941 25.5586 45.2282H25.5643ZM32.6081 65.9089C37.7895 67.4223 42.9024 68.832 48.398 70.1383L46.2557 80.7318L38.6692 79.8514L30.4544 78.8962L32.6081 65.9089ZM49.1863 70.3914L54.2992 72.4802C56.5043 73.3836 58.3609 74.3964 61.0516 75.8752L56.67 84.121C53.8022 82.8321 50.5631 81.8193 46.9584 80.9332L49.1806 70.3972L49.1863 70.3914ZM49.5234 69.7297C50.9858 65.5119 52.6482 61.3285 54.7962 57.3639C59.4977 60.3791 63.1767 63.0721 66.9528 66.2714L61.4115 75.3286C57.704 73.0384 54.2306 71.2373 49.5234 69.7297ZM55.0647 56.7827C57.1841 52.818 59.8976 49.1296 63.1824 45.3088C67.3527 49.1411 70.9746 52.9907 74.4707 57.128C71.8486 60.0166 69.8434 62.4046 67.2956 65.6212C63.4052 62.3758 59.7148 59.6195 55.0704 56.7885L55.0647 56.7827ZM63.7708 44.9578C67.4327 41.4937 71.2887 38.3692 75.7961 35.2561C79.6064 39.5603 82.5542 43.7666 85.3763 48.8419C81.2517 51.391 78.2125 53.6927 74.9392 56.6619C71.5801 52.6512 68.1239 48.9224 63.7708 44.9578ZM85.6048 49.5611C88.5982 55.5053 90.4149 61.7141 91.626 68.0149C89.0438 69.9138 87.1472 71.5365 84.1423 74.218C82.0572 67.8653 79.835 62.2722 75.2819 57.2315C78.5839 54.2221 81.7259 52.0067 85.6048 49.5611ZM93.6882 68.2739L94.0996 73.9936C86.2332 80.2945 82.3942 89.7544 82.2686 99.8358C82.5256 103.144 83.2054 105.924 84.388 109.365C80.509 108.122 78.1497 104.842 77.4756 100.779C75.5219 89.0006 82.1029 73.7231 93.6882 68.2739ZM83.9367 105.124C81.6059 94.3578 85.719 82.5961 93.6026 75.4954C94.488 77.4519 97.6871 79.1436 99.2296 79.2357C102.24 76.3068 105.953 73.6656 110.215 72.906C110.581 72.8427 111.632 72.86 111.632 72.86L111.763 73.4009L111.055 73.6196C110.661 73.7404 110.272 73.89 109.895 74.0626C108.387 74.7704 104.417 76.7211 102.56 78.4991C94.3738 86.3479 89.0895 98.9899 92.7856 110.124L90.1864 112.334C86.8559 111.327 84.685 108.548 83.9424 105.112L83.9367 105.124ZM111.163 65.8226L109.73 55.9886L111.42 51.391L114.163 60.0914L111.163 65.8168V65.8226ZM114.14 72.3133C112.894 72.8773 110.861 71.2661 111.055 69.6491C111.243 68.061 111.529 66.4671 111.969 65.7363L114.128 62.1169C114.825 65.5636 115.099 68.9299 114.145 72.3133H114.14ZM110.489 71.4445C106.296 72.7046 103.006 74.3906 99.5552 77.262L98.2127 63.3195L108.93 56.6158L110.489 71.4387V71.4445ZM98.4869 77.4288L95.1621 76.2262L94.5909 63.3655L97.2758 63.5554C97.8242 68.5616 98.1727 71.8588 98.4869 77.4346V77.4288ZM89.2095 113.41L84.1595 118.071L86.2217 111.534L89.2095 113.41ZM98.1784 105.941L100.035 108.738L95.2935 113.197C91.049 117.461 87.1015 121.702 82.4228 125.546C72.9454 133.337 61.0345 135.397 48.9407 134.212L49.3863 130.972C60.3318 131.714 68.2267 131.185 77.3157 124.936C84.3823 120.079 98.1841 105.941 98.1841 105.941H98.1784ZM99.1667 104.79C96.4132 96.1819 100.761 86.4572 108.953 82.6019C111.043 81.6179 113.997 82.1128 115.488 83.5168C117.11 85.0474 118.127 87.6714 118.07 90.2262C117.979 91.8547 117.733 93.4659 117.339 95.0483L117.259 95.3705C115.614 99.9336 113.471 103.68 109.541 106.718C109.038 107.103 108.33 107.569 108.198 107.621C107.005 108.248 105.496 109.048 103.006 108.801C101.08 108.605 99.7951 106.77 99.1667 104.79ZM116.642 171.787L103.423 162.401C107.187 159.772 111.34 158.132 115.888 156.895L126.97 168.737C122.886 168.783 119.755 169.732 116.636 171.787H116.642ZM127.656 169.399L135.431 180.757L129.461 185.844C125.782 180.504 122.16 176.448 117.247 172.31C120.464 170.503 124.131 169.387 127.662 169.399H127.656ZM115.762 172.126C112.037 175.061 109.587 177.472 106.736 181.241L91.843 174.393C94.8993 170.118 98.5212 166.544 102.726 162.822L115.762 172.126ZM91.2718 173.95C84.3765 169.773 77.9726 165.302 71.8714 159.789C71.7001 159.634 71.7515 159.352 71.9629 159.265C78.1783 156.734 83.9081 154.035 89.6722 150.254C93.1455 154.691 97.3158 158.546 102.166 162.281C98.3612 165.704 94.8879 169.151 91.2718 173.95ZM90.8833 174.549C88.027 178.611 85.8104 182.944 83.7881 187.225L64.9077 181.914L44.3077 175.699L47.3468 169.019L50.723 160.054C56.3786 160.992 62.1484 161.13 67.844 160.284C69.7977 159.996 70.2148 159.415 72.437 161.371C78.1211 166.257 84.3937 170.567 90.8833 174.549ZM71.1973 158.529L66.9528 134.528L66.9128 134.511C72.7912 133.015 78.1269 130.281 83.234 126.305C83.5596 135.034 85.3077 142.239 89.4037 149.541C83.5653 153.293 77.8755 156.244 71.1916 158.535L71.1973 158.529ZM50.1346 158.897C44.9475 154.858 42.4739 148.655 43.525 142.377L50.7288 140.829C51.3343 147.216 51.2943 152.608 50.1346 158.891V158.897ZM49.9804 159.898L43.605 175.279C35.91 169.122 29.1919 162.948 21.6968 156.095L27.1924 144.293C32.9223 146.18 37.2811 146.474 42.651 146.618C42.2283 152.257 45.6216 156.106 49.9804 159.893V159.898ZM42.5767 145.651C37.3553 145.484 32.9394 144.84 27.6552 143.574L29.4889 139.949C33.8249 142.106 37.7666 142.659 42.6453 142.549L42.571 145.645L42.5767 145.651ZM26.6269 143.343L15.0758 138.895C17.4866 135.172 20.0059 132.105 23.0107 129.2C24.9873 133.797 26.5412 136.795 28.9862 139.805L26.6269 143.343ZM26.3641 144.138C24.5589 147.648 23.1993 150.605 21.1484 155.508L11.0084 146.169L14.5788 139.454L26.3584 144.138H26.3641ZM21.0513 156.365L19.0461 161.705L16.8639 168.138L6.78667 157.499L10.597 146.871L21.0456 156.371L21.0513 156.365ZM21.5597 156.958L43.2337 175.976L39.1377 186.506C31.2942 181.35 24.3247 175.268 17.5551 168.812L21.5597 156.958ZM43.9763 176.206C47.9695 177.8 51.2429 179.02 54.9619 180.067L69.6092 184.181L83.3654 188.002L79.755 200.27C69.3007 197.416 58.7894 194.936 48.9464 190.747L39.8289 186.868L43.9706 176.2L43.9763 176.206ZM84.1937 188.261L101.635 191.846L99.0011 203.809L80.5319 200.517L84.1995 188.261H84.1937ZM84.5308 187.455L91.3232 174.808C96.1847 177.57 100.772 179.796 106.182 181.684L101.926 190.896C96.2361 190.039 90.7005 188.917 84.5308 187.45V187.455ZM106.936 182.006C110.872 183.934 113.997 185.643 116.813 190.338C112.055 191.483 107.959 191.535 102.783 191.029L106.936 182.006ZM107.456 181.408C110.067 178.082 112.871 175.325 116.402 172.69C121.406 176.655 125.125 180.66 128.747 186.299L117.796 190.419C115.288 186.184 112.152 183.692 107.456 181.408ZM129.93 186.529L136.208 181.241L141.035 188.376C139.607 192.663 137.887 196.11 133.426 198.613C132.449 194.228 131.569 190.476 129.93 186.529ZM135.819 180.188L128.941 169.813C132.575 170.371 134.351 171.677 137.122 173.76C137.63 176.183 137.425 178.174 135.819 180.188ZM137.053 172.31L130.815 169.243C128.741 169.076 127.296 168.11 125.988 166.7L117.11 157.136L124.914 157.764C129.421 162.143 134.357 165.699 137.053 172.31ZM123.503 156.636L116.796 156.29C113.837 152.286 110.792 148.793 108.627 143.896L123.503 156.636ZM106.965 143.228L115.631 156.158C110.289 157.108 106.73 159.208 102.76 161.924C98.1327 158.184 93.9682 154.535 90.3463 149.915C95.5392 145.95 99.4295 142.739 103.823 138.199L106.965 143.234V143.228ZM103.388 137.67C99.1553 141.882 95.2364 145.323 90.1407 149.126C86.7816 143.838 85.4962 138.539 84.725 132.675L83.8224 125.816L94.3566 115.689L96.0933 116.644L96.6931 119.504C96.6931 119.504 99.4238 131.824 103.394 137.67H103.388ZM114.894 74.7301C118.824 75.4436 121.452 79.276 122.046 83.3902C123.788 95.4914 117.939 108.231 107.524 114.405C103.64 116.707 99.4238 117.288 95.2707 114.676C97.093 112.789 99.0182 110.821 101.046 109.365C104.748 110.32 107.861 109.44 110.524 107.109C119.521 99.2431 121.412 85.5366 114.831 82.038C112.614 80.8584 109.672 80.8987 107.347 82.2682C100.155 86.509 96.0019 95.1864 97.9214 103.519C98.0128 103.927 98.1556 104.318 98.3212 104.71L93.4197 109.434C89.2552 95.336 102.263 72.4227 114.894 74.7186V74.7301ZM116.568 57.5883L115.488 67.5949L115.168 64.2862L114.968 61.7371C114.922 61.1271 115.037 60.5172 115.299 59.9648L116.465 57.5538C116.493 57.502 116.573 57.525 116.568 57.5825V57.5883ZM112.563 41.0507C115.802 45.1879 117.167 54.0034 114.899 58.486L112.346 51.1896C112.203 50.7465 111.946 49.6532 111.946 49.6532C111.946 49.6532 112.58 43.3926 112.563 41.0507ZM110.232 34.0363L110.421 34.4621C110.775 35.3194 111.078 36.1941 111.329 37.0802C111.329 37.0802 111.483 38.5706 111.523 39.6927C111.758 41.9023 111.506 42.9495 111.261 45.0038C110.952 47.6162 110.432 50.1941 109.701 52.7202C109.512 53.382 109.341 53.9056 109.227 54.1185L107.393 47.1386L107.096 46.1604C106.256 43.8932 104.582 38.6799 104.582 38.6799L104.257 38.2714C104.137 38.3289 108.707 34.9915 110.158 33.9154C110.187 33.9614 110.209 34.0017 110.227 34.0305L110.232 34.0363ZM108.524 30.7333C108.524 30.7333 109.718 33.1961 109.701 33.1904L103.8 37.1781L96.7731 25.8998L102.394 23.4024C104.794 25.5891 106.896 28.0519 108.524 30.7333ZM90.1806 15.243C92.8199 16.8024 95.7505 18.5574 95.7505 18.5574L97.293 19.4723C98.9154 20.5253 100.464 21.6992 101.909 22.9709L96.3275 25.1978L91.7516 19.4666L85.3077 12.8262L90.1749 15.2372L90.1806 15.243ZM82.1029 11.1632C91.7745 18.7991 98.7211 28.7424 103.68 40.0494C105.771 44.7621 107.039 49.2849 108.473 54.5213L97.79 60.4021C94.5909 47.4033 89.021 35.7222 80.1434 25.8077C73.8995 18.9717 66.9128 13.4419 58.538 9.64985C53.2195 7.24459 48.0038 6.13978 41.617 6.01894C53.8707 -3.47553 70.3804 1.89891 82.1086 11.1632H82.1029ZM52.6939 8.45298C75.5619 16.0716 91.3632 37.3104 96.8131 60.5977L94.031 60.4021C89.438 40.6766 75.0991 20.8303 56.1387 13.8102C51.0658 11.9285 45.5245 11.192 40.2117 12.4004C32.3967 14.1842 27.2153 20.2204 24.9988 28.2935L21.971 26.1357C24.9473 11.7904 38.892 3.8496 52.6939 8.44722V8.45298ZM21.5026 29.0013L23.959 30.5032C24.7417 30.9808 24.7588 38.4613 21.0456 41.1082L21.5026 28.9956V29.0013ZM24.6846 45.3088L21.097 57.7839L17.2238 56.4029C18.1207 52.9792 19.2803 49.3943 20.5543 46.0396C21.6454 45.4699 23.8105 45.1879 24.6846 45.3088ZM7.92921 69.5398C5.42134 58.3076 9.99149 46.1029 19.1889 39.4107C19.2918 39.3359 20.1658 38.6109 20.2744 38.5361C20.3543 38.6569 20.2972 41.6951 20.2344 41.816C19.646 42.938 19.6402 43.0416 18.492 44.4974C11.631 53.2208 8.83753 65.696 13.0478 76.4046C10.3914 75.0121 8.59188 72.532 7.9235 69.5398H7.92921ZM12.5451 72.8025C10.9112 63.4346 12.5222 52.726 19.446 45.326C15.7442 56.0577 13.4477 65.9952 16.6754 77.4691C14.0361 77.5727 13.6476 74.8912 12.5451 72.8025ZM16.7953 85.4963C18.4006 78.0215 16.2298 74.0799 16.424 67.4395L27.9808 77.7971L29.5803 79.3795L29.4889 81.2439L27.6323 90.8707L19.8916 110.245C19.8116 110.441 19.7888 110.636 19.8059 110.838L16.7268 97.5744C15.7727 93.4716 15.9156 89.6163 16.801 85.5078L16.7953 85.4963ZM19.9087 111.275C19.9887 111.482 20.1144 111.672 20.2744 111.845C22.3766 114.106 27.3809 115.781 31.437 114.728C25.6043 114.4 19.7602 112.409 20.9199 109.566L28.5349 90.9052C28.5349 90.9052 30.3687 81.2151 30.403 79.6212C33.9163 80.2887 36.9383 80.8526 40.2402 81.031C50.8887 81.5949 58.995 84.9439 65.7532 92.9192L66.6158 92.7466L62.5083 88.3446C61.1773 86.9176 59.3435 85.8185 57.4869 84.7482L61.6 76.5485C67.0899 80.6973 69.1293 85.8761 70.4833 92.2115L71.4601 91.239C69.8834 85.0187 67.1813 79.9319 61.9542 75.9615L67.3527 66.8008C67.387 66.8296 67.4213 66.8641 67.4498 66.8929C71.4316 70.5813 74.0994 74.4309 75.8475 79.5867L77.0929 83.2694L77.7327 82.0495C75.2477 72.4745 72.9968 71.456 67.7069 66.2829C69.9691 63.2965 72.1457 60.6726 74.842 57.6804C78.8238 63.0836 81.5545 68.6767 83.8338 75.0293C78.4182 81.9804 75.6704 90.2895 76.196 98.9497C76.5616 104.923 79.9663 109.25 85.6619 111.246C84.3366 114.193 83.3883 117.783 81.4631 120.01C73.9909 128.63 60.4175 131.754 49.1806 129.666C47.6953 125.609 42.2111 125.005 36.8755 124.378C33.9677 124.038 31.8483 126.944 31.4198 129.033C30.7914 132.088 32.0482 135.167 35.1845 135.978L41.3885 137.584C45.1417 138.556 46.3871 137.428 48.9464 135.581C52.0598 135.794 56.2301 135.765 59.9719 135.794C49.8433 141.41 31.9797 145.34 26.8382 135.236C24.6731 130.983 23.4449 126.553 22.3538 121.857L19.8973 111.281L19.9087 111.275ZM48.0838 132.802C47.741 134.223 46.6556 136.991 43.9592 136.761C40.8286 136.496 37.6638 135.656 34.8703 134.775C32.7109 134.096 31.9511 131.403 32.311 129.579C32.7052 127.594 34.2933 125.137 36.9269 125.385C39.9717 125.672 43.1537 126.374 46.0615 127.393C48.0666 128.095 48.5122 131.029 48.0838 132.802ZM21.7597 123.906L22.9136 128.699L13.5562 127.893L21.7597 123.906ZM10.6485 129.516C14.2075 128.987 17.3152 128.751 21.4569 129.223L14.4017 138.314C11.8024 137.284 9.20314 136.646 5.7184 136.059C6.58101 133.429 8.44907 131.26 10.6485 129.516ZM5.10143 137.186C5.47846 136.571 6.20398 136.686 6.60387 136.807L14.1161 139.005L10.2314 145.409L5.31851 138.895C5.07858 138.573 4.66155 137.906 5.10143 137.181V137.186ZM4.26737 138.326C6.19826 141.324 7.77497 143.787 9.91152 146.198L6.38107 156.538C1.55955 150.415 0.302758 145.927 4.26737 138.32V138.326ZM3.14197 166.337C1.63382 163.587 0.965431 160.445 1.06826 157.309L1.30819 149.944L6.17541 157.602L5.00431 169.071C4.25023 168.167 3.64469 167.27 3.13626 166.343L3.14197 166.337ZM14.0418 180.792L5.70126 170.699L6.69527 158.621L16.6239 169.065L14.0418 180.792ZM14.6245 181.212L17.3666 169.755C24.5475 176.442 31.5055 182.207 39.052 187.507C37.8866 191.121 37.3153 193.739 36.4299 197.968C28.1979 193.336 21.097 187.875 14.6245 181.206V181.212ZM37.0068 198.36L39.589 187.639C52.2712 193.946 65.776 197.784 79.5322 201.104C78.4925 205.639 77.9098 209.091 77.3842 213.597C63.2339 210.443 49.8947 205.426 37.0068 198.36ZM77.8184 213.81L80.3662 201.231C86.2446 202.721 92.5514 203.941 98.8125 204.534L97.8299 217.078C91.5574 216.543 84.5822 215.231 77.8184 213.81ZM117.305 217.659C110.929 218.321 104.822 218.045 98.5155 217.343L99.6466 204.707C105.805 205.253 111.409 205.403 117.682 204.908L117.31 217.665L117.305 217.659ZM99.8237 203.895L102.532 191.748C107.056 192.68 110.861 192.726 114.991 191.575L116.676 191.362C117.127 191.305 117.339 192.726 117.31 193.129L117.939 203.838C112.175 204.747 106.416 204.471 99.8237 203.889V203.895ZM118.247 217.607L118.521 204.637C123.646 204.114 127.844 202.848 132.643 200.333L133.294 213.246C128.353 215.323 124.474 216.531 118.247 217.613V217.607ZM133.911 212.785L133.854 205.61L133.329 199.861C136.933 197.525 139.487 194.493 141.401 190.505C145.057 199.81 142.578 207.002 133.911 212.785Z" fill="#E8EDF7"/>
</g>
<defs>
<clipPath id="clip0_186_470">
<rect width="144" height="219" fill="white"/>
</clipPath>
</defs>
</svg>
